<svg xmlns="http://www.w3.org/2000/svg" width="128" height="128" viewBox="0 0 128 128">
  <title>TEA</title>
  <g>
    <path d="M110.312,85H86.9a21.964,21.964,0,0,0,9.34-12.75h.36a21.045,21.045,0,0,0,21.021-21.021,8.489,8.489,0,0,0-8.479-8.479H96.991v-4A1.751,1.751,0,0,0,95.241,37H41.449a1.751,1.751,0,0,0-1.75,1.75V66.537A21.959,21.959,0,0,0,49.79,85H26.378a2.089,2.089,0,0,0-2.086,2.087,10.611,10.611,0,0,0,10.6,10.6H101.8a10.611,10.611,0,0,0,10.6-10.6A2.089,2.089,0,0,0,110.312,85ZM61.762,53.167A4.838,4.838,0,0,1,66.6,58v7.833H56.928V58A4.839,4.839,0,0,1,61.762,53.167ZM43.2,66.537V40.5H60.012v9.355A8.345,8.345,0,0,0,53.428,58v9.583a1.75,1.75,0,0,0,1.75,1.75H68.345a1.749,1.749,0,0,0,1.75-1.75V58a8.344,8.344,0,0,0-6.583-8.145V40.5H93.491v4a1.75,1.75,0,0,0,1.75,1.75h13.9a4.985,4.985,0,0,1,4.979,4.979A17.541,17.541,0,0,1,96.6,68.75H94.847a1.749,1.749,0,0,0-1.716,1.409A18.5,18.5,0,0,1,75.028,85H61.662A18.483,18.483,0,0,1,43.2,66.537Zm58.6,27.649H34.891A7.111,7.111,0,0,1,27.933,88.5h80.824A7.111,7.111,0,0,1,101.8,94.186Z"/>
    <path d="M95.3,65.625h2.516c5.133,0,13-6.972,13-13a4.272,4.272,0,0,0-4.267-4.266H95.3a1.751,1.751,0,0,0-1.75,1.75V63.875A1.751,1.751,0,0,0,95.3,65.625Zm1.75-13.765h9.5a.768.768,0,0,1,.767.766c0,4.008-6.06,9.5-9.5,9.5h-.766Z"/>
  </g>
</svg>
